<svg xmlns="http://www.w3.org/2000/svg" class="css-1j8o68f" viewBox="0 -5 351 107.853" width="200" height="80"><defs id="SvgjsDefs1001" />

<g id="SvgjsG12827" featurekey="e7LhAk-0" transform="matrix(0.9473584543362653,0,0,0.9473584543362653,16.631609284987896,-17.344617852065348)" fill="#111111"><path xmlns="http://www.w3.org/2000/svg" d="M94.862,69.788H79.911c-0.7,0-1.37,0.278-1.864,0.772c-0.495,0.495-0.773,1.165-0.773,1.865  c0,0.072-0.062,6.765-4.837,10.222c-4.725-3.437-4.838-10.159-4.838-10.222c0-0.314-0.438-30.401-29.615-32.351  c1.466-9.382,10.863-9.863,12.027-9.874c1.453-0.01,2.627-1.195,2.623-2.648c-0.005-1.453-1.18-2.627-2.633-2.627  c-3.405,0-8.48,1.19-12.313,4.64V14.613c0-1.458-1.18-2.638-2.638-2.638s-2.638,1.18-2.638,2.638v14.888  c-2.715-2.666-6.664-4.575-12.323-4.575c-1.458,0-2.638,1.18-2.638,2.638c0,1.458,1.18,2.638,2.638,2.638  c8.918,0,11.386,6.229,12.065,9.871C2.938,41.999,2.5,72.111,2.5,72.426c0,6.09,3.678,17.599,17.599,17.599h44.862  c2.767,0,5.271-0.464,7.476-1.375c2.205,0.911,4.709,1.375,7.475,1.375c13.91,0,17.589-11.509,17.589-17.599  C97.5,70.968,96.32,69.788,94.862,69.788z M64.961,84.749H20.099c-11.885,0-12.313-11.071-12.323-12.323  c0-1.112,0.309-27.263,27.274-27.263c26.862,0,27.269,26.156,27.274,27.263c0,0.36,0.062,7.156,4.519,12.226  C66.238,84.719,65.61,84.749,64.961,84.749z M79.911,84.749c-0.648,0-1.277-0.03-1.88-0.098c2.803-3.189,3.869-7.063,4.271-9.588  h9.629C91.199,78.731,88.665,84.749,79.911,84.749z"></path><path xmlns="http://www.w3.org/2000/svg" d="M18.208,73.597c-0.474,0.475-0.737,1.108-0.737,1.845c0,0.69,0.263,1.319,0.737,1.85c0.531,0.525,1.216,0.788,1.901,0.788  c0.634,0,1.319-0.263,1.845-0.788c0.479-0.53,0.793-1.216,0.793-1.85c0-0.686-0.263-1.37-0.845-1.896  C20.902,72.598,19.264,72.541,18.208,73.597z"></path></g><g id="SvgjsG12828" featurekey="nameLeftFeature-0" transform="matrix(0.9253006604735383,0,0,0.9253006604735383,110.38740913856061,31.717387390938327)" fill="#111111"><path d="M19.886 -11.420000000000002 c1.6141 -0.016836 2.85 2.063 1.3248 3.5242 c0.0061132 -0.0033008 0.012402 -0.0061718 0.01918 -0.008164 c0.023438 -0.006875 -0.015098 0.046544 -0.025254 0.068712 c-0.041758 0.090664 -0.089316 0.17861 -0.13053 0.26954 c-0.32432 0.71672 -0.59138 1.4559 -0.8662 2.1924 c-1.2196 3.4256 -2.4044 6.8636 -3.6098 10.294 c-0.56744 1.6042 -1.1348 3.2084 -1.6971 4.8144 c0.74716 1.2884 0.029278 2.5356 -1.0188 2.9332 c-0.43714 1.2713 -0.86876 2.5446 -1.2916 3.8208 c-0.64584 1.973 -1.2561 3.9596 -1.7088 5.9866 c-0.11984 0.61858 -0.069102 0.32652 -0.15598 0.87546 c-0.45224 2.805 -4.4192 2.1654 -3.967 -0.63958 c0.11705 -0.71626 0.050684 -0.34444 0.20228 -1.115 c0.48512 -2.1562 1.1244 -4.2728 1.8153 -6.3716 c0.54312 -1.6386 1.1002 -3.2724 1.6652 -4.9036 c-0.72962 -1.1029 -1.4307 -2.2244 -2.1132 -3.3572 c-1.3251 -2.2034 -2.6216 -4.4238 -3.917 -6.645 c-1.0205 -1.7337 -2.0466 -3.4644 -3.1158 -5.1688 c-0.39928 -0.63602 -0.79356 -1.2762 -1.2228 -1.8927 c-1.7176 -2.2634 1.4831 -4.6924 3.2008 -2.4292 c0.50736 0.70642 0.96264 1.4488 1.425 2.185 c1.0895 1.7368 2.1354 3.5004 3.1756 5.2672 c1.2891 2.2102 2.579 4.4198 3.8976 6.6126 c0.12031 0.19947 0.24134 0.39852 0.36284 0.59726 c0.22398 -0.63396 0.44816 -1.2678 0.67244 -1.9017 c1.214 -3.4558 2.4066 -6.9188 3.6368 -10.369 c0.26352 -0.70444 0.45434 -1.2398 0.74266 -1.9226 c0.25194 -0.59688 0.52452 -1.2187 0.92452 -1.7354 c0.10791 -0.13939 0.23664 -0.26132 0.35504 -0.392 c0.46712 -0.40998 0.95888 -0.58578 1.4198 -0.59058 z M34.5218 -10.515999999999998 c2.7122 -0.022656 2.8756 3.8678 0.082714 4.0166 c-0.67008 0.035606 -1.3401 0.072598 -2.009 0.12758 c-0.14994 0.012637 -0.29988 0.025606 -0.4498 0.038828 c0.065644 0.54032 0.098242 1.0853 0.13316 1.6278 c0.09959 1.9226 0.1393 3.8478 0.18969 5.772 c0.062734 2.506 0.13793 5.0116 0.23464 7.5166 c0.0517 1.3571 0.12439 2.7132 0.22652 4.0672 c0.13643 -0.012012 0.27292 -0.023984 0.40938 -0.035546 c0.71024 -0.058672 1.4218 -0.098144 2.1334 -0.13617 c2.8374 -0.15117 3.0512 3.8614 0.21382 4.0126 c-0.67008 0.035606 -1.3402 0.072598 -2.009 0.12758 c-0.29052 0.024492 -0.581 0.050118 -0.87136 0.077188 c-0.6613 0.91634 -2.0486 1.0838 -2.9116 0.36172 c-0.065918 0.010996 -0.13186 0.02207 -0.1977 0.033554 c-0.63288 0.11771 -1.27 0.2333 -1.8819 0.4377 c-2.6482 1.0296 -4.1042 -2.7154 -1.4561 -3.745 c0.83388 -0.3062 1.7091 -0.47486 2.5796 -0.6386 c-0.11365 -1.467 -0.19457 -2.9364 -0.2502 -4.407 c-0.097286 -2.5216 -0.1732 -5.0438 -0.23626 -7.5664 c-0.049044 -1.8741 -0.087852 -3.7488 -0.18289 -5.6214 c-0.028788 -0.45482 -0.053184 -0.91176 -0.10781 -1.3647 c-0.48198 0.092774 -0.96238 0.19684 -1.4281 0.35242 c-2.6482 1.0296 -4.1042 -2.7154 -1.4561 -3.745 c0.84008 -0.3085 1.7221 -0.4774 2.599 -0.64226 c1.4498 -0.25654 2.9154 -0.40256 4.3814 -0.52672 c0.71024 -0.058672 1.4218 -0.098144 2.1334 -0.13617 c0.044336 -0.0023632 0.088028 -0.0040626 0.13109 -0.0040626 z M60.136 -13.744 c2.6506 0.023204 2.8118 3.8524 0.04205 4.0162 c-2.288 0.13477 -4.5732 0.3229 -6.8434 0.64704 c-2.595 0.37568 -5.185 0.80206 -7.734 1.4246 c-1.2196 0.30582 -2.4388 0.6206 -3.6246 1.0423 c-2.6744 0.95946 -4.0312 -2.8226 -1.3569 -3.7822 c1.3093 -0.46786 2.6556 -0.81848 4.0026 -1.1573 c2.6814 -0.6572 5.4062 -1.1079 8.1364 -1.5041 c2.3826 -0.34106 4.7812 -0.53906 7.1826 -0.6816 c0.066484 -0.0039454 0.1315 -0.005 0.19512 -0.005 z M50.659 -7.712 c0.78568 -0.0041406 1.5802 0.44548 1.9287 1.4992 c0.24616 0.82276 0.32766 1.6823 0.41188 2.5334 c0.1393 1.6012 -0.08998 8.0726 -0.035196 9.6786 c0.060312 1.7682 0.087402 3.5372 0.12809 5.306 c0.020098 0.88326 0.047382 1.7663 0.078028 2.6492 c0.098536 2.8396 -3.9172 2.9788 -4.0158 0.13934 c-0.031152 -0.8986 -0.058906 -1.7973 -0.079376 -2.6962 c-0.040312 -1.7539 -0.070294 -3.508 -0.12682 -5.2616 c-0.049024 -1.5206 0.10143 -7.1066 -0.027872 -8.623 c-0.047558 -0.55766 -0.023808 -1.9171 -0.14787 -2.464 c-0.54368 -1.6438 0.66058 -2.7544 1.8863 -2.761 z M67.47800000000001 -9.962 c0.48646 -0.5199 1.2615 -0.78712 2.212 -0.46654 c0.83698 0.28856 1.6694 0.5871 2.428 1.0551 c0.25522 0.16148 0.51688 0.3132 0.76564 0.48448 c1.3029 0.89702 2.409 2.0476 3.291 3.358 c0.16992 0.27896 0.35102 0.55142 0.5098 0.8369 c0.80528 1.4478 1.3047 3.0418 1.4926 4.6864 c0.023164 0.32952 0.058828 0.65838 0.069454 0.98854 c0.053086 1.6465 -0.2129 3.2866 -0.72102 4.8506 c-0.1126 0.30782 -0.21554 0.61932 -0.33776 0.92344 c-0.61878 1.5396 -1.4804 2.972 -2.5248 4.2598 c-0.2199 0.25224 -0.43192 0.51158 -0.65968 0.75672 c-1.1222 1.2076 -2.4324 2.2284 -3.8856 3.0076 c-0.2875 0.14141 -0.5704 0.2926 -0.86248 0.42424 c-1.4072 0.63414 -2.9142 1.0346 -4.4576 1.1185 c-0.29308 0.0002539 -0.58648 0.014492 -0.87926 0.00080078 c-1.413 -0.066132 -2.7724 -0.4799 -3.9508 -1.268 c-0.21686 -0.16846 -0.44402 -0.32438 -0.65052 -0.50536 c-1.081 -0.94738 -1.812 -2.199 -2.2784 -3.5464 c-0.084316 -0.29218 -0.18113 -0.58108 -0.25298 -0.87658 c-0.38716 -1.5921 -0.4147 -3.2456 -0.22108 -4.8668 c0.053828 -0.34114 0.097148 -0.68408 0.1615 -1.0234 c0.3378 -1.7807 0.95986 -3.4956 1.7615 -5.1178 c1.0261 -1.9505 2.1972 -3.8232 3.677 -5.4674 c1.1042 -1.1989 2.2642 -2.3828 3.7424 -3.118 c0.51002 -0.21896 1.0321 -0.40926 1.571 -0.49462 z M67.95700000000001 -6 c-0.10656 0.069512 -0.28114 0.1365 -0.404 0.19898 c-0.9463 0.5508 -1.696 1.3664 -2.4262 2.1676 c-1.2395 1.3904 -2.222 2.9698 -3.0792 4.6162 c-0.79362 1.5548 -1.2552 3.1704 -1.5113 4.889 c-0.17213 1.392 -0.06037 2.6534 0.35436 3.9868 c0.29856 0.84198 0.75424 1.4781 1.4869 1.9811 c0.72676 0.4379 1.5503 0.48868 2.3762 0.46486 c1.2726 -0.082422 2.4492 -0.55276 3.5736 -1.1219 c1.2994 -0.6843 2.351 -1.6898 3.2966 -2.7954 c0.96142 -1.1627 1.6214 -2.5074 2.1228 -3.9198 c0.45954 -1.3913 0.5471 -2.7208 0.42424 -4.169 c-0.15959 -1.3846 -0.67876 -2.5512 -1.4141 -3.7164 c-0.7223 -1.0773 -1.6675 -1.8761 -2.7646 -2.545 c-0.18061 -0.10748 -0.36736 -0.20018 -0.55814 -0.28316 c-0.38558 0.2292 -0.88176 0.33652 -1.477 0.24632 z M87.3904 12.215399999999999 c0.072246 0.087442 0.14982 0.15408 0.22992 0.17111 c0.035918 0.0076368 -0.031036 -0.068632 -0.057676 -0.093964 c0.0096484 -0.043868 -0.070976 -0.06461 -0.17225 -0.077148 z M86.4296 -8.128 c-0.10359 0.92892 -0.23536 1.8546 -0.35496 2.7816 c-0.27944 2.0668 -0.44616 4.145 -0.54646 6.2274 c-0.10938 2.2664 0.027754 4.5302 0.34272 6.7742 c0.21696 1.3843 0.5571 2.7506 1.1705 4.014 c0.039902 0.05498 0.090996 0.14805 0.15041 0.2494 c0.033456 -0.04875 0.067032 -0.097442 0.10049 -0.14623 c0.89966 -1.4966 1.4784 -3.16 2.0832 -4.7904 c0.8845 -2.4552 1.7402 -4.9206 2.6072 -7.382 c0.62296 -1.7678 1.2558 -3.5322 1.8867 -5.2972 c0.2944 -0.82564 0.58736 -1.6519 0.88672 -2.4758 c0.32528 -0.8728 0.7892 -1.8782 1.9709 -1.8976 c0.63192 -0.010391 1.1776 0.45944 1.7663 0.68916 c0.14639 0.23984 0.31576 0.46716 0.43936 0.71956 c0.10809 0.2206 0.2176 0.73954 0.26352 0.98436 c0.11832 0.63056 0.1824 1.2697 0.25256 1.9068 c0.21168 2.1774 0.33786 4.3622 0.4728 6.5454 c0.15025 2.5364 0.31034 5.0722 0.49434 7.6064 c0.12104 1.6984 0.28208 3.3936 0.47798 5.0848 c0.073126 0.62302 0.15529 1.2449 0.238 1.8667 c0.37488 2.8164 -3.6082 3.3466 -3.983 0.53024 c-0.085762 -0.64448 -0.1708 -1.2891 -0.24648 -1.9348 c-0.20222 -1.7483 -0.3691 -3.5004 -0.49406 -5.256 c-0.18496 -2.5486 -0.34618 -5.0988 -0.49728 -7.6496 c-0.008418 -0.13621 -0.016797 -0.27244 -0.025156 -0.40868 c-0.037774 0.10699 -0.075528 0.214 -0.11324 0.32102 c-0.87442 2.4826 -1.7372 4.9692 -2.63 7.4452 c-0.74352 2.0018 -1.4638 4.0474 -2.659 5.8338 c-0.41296 0.5181 -0.5908 0.80504 -1.1188 1.2148 c-0.6704 0.5203 -1.4623 0.82412 -2.3188 0.79576 c-0.2604 -0.0086328 -0.51424 -0.083808 -0.77144 -0.12572 c-0.22478 -0.09084 -0.45894 -0.16145 -0.67448 -0.2725 c-1.0041 -0.51728 -1.6734 -1.4667 -2.1902 -2.437 c-0.7661 -1.6431 -1.2592 -3.3852 -1.519 -5.181 c-0.34328 -2.4926 -0.5008 -5.0056 -0.37626 -7.5222 c0.10697 -2.189 0.28088 -4.374 0.5748 -6.5468 c0.11225 -0.86988 0.23336 -1.7387 0.33656 -2.6098 c0.24208 -2.831 4.2456 -2.4886 4.0036 0.34236 z M121.185 -12.244 c2.5912 -0.0088086 2.8612 3.7534 0.12109 4.0132 c-0.7646 0.072402 -0.37498 0.036738 -1.1689 0.1066 c-0.88438 0.072382 -1.7692 0.13844 -2.6538 0.20782 c0.030626 0.077286 0.058496 0.15818 0.083438 0.24286 c0.30328 1.0573 0.52402 2.1356 0.73922 3.2134 c0.43796 2.2376 0.73108 4.4994 0.9864 6.764 c0.30132 2.6288 0.40628 5.2716 0.36728 7.9158 c-0.065196 1.9825 -0.2606 3.9694 -0.72944 5.9004 c-0.084746 0.34914 -0.18828 0.69348 -0.28242 1.0402 c-0.47994 1.5598 -1.1626 3.0686 -2.1792 4.356 c-0.18615 0.23574 -0.39342 0.45406 -0.59012 0.6811 c-1.0261 1.0518 -2.2784 1.8749 -3.7228 2.2142 c-0.28978 0.068066 -0.5873 0.097286 -0.88096 0.14594 c-1.5863 0.12168 -3.1168 -0.30516 -4.4022 -1.2492 c-0.25898 -0.1902 -0.49114 -0.41444 -0.73672 -0.62164 c-1.1627 -1.1439 -1.97 -2.5708 -2.4858 -4.111 c-0.10369 -0.30966 -0.18361 -0.6268 -0.27546 -0.9402 c-0.3987 -1.6135 -0.53336 -3.2868 -0.36414 -4.942 c0.03459 -0.33842 0.093868 -0.67388 0.14078 -1.0108 c0.30796 -1.7052 0.93562 -3.3358 1.8633 -4.8004 c0.18285 -0.2887 0.3875 -0.56298 0.58122 -0.8445 c0.2089 -0.26134 0.41782 -0.52272 0.62672 -0.78406 c1.7851 -2.2104 4.9112 0.31416 3.126 2.5246 c-0.15189 0.18541 -0.30376 0.3708 -0.45564 0.55622 c-0.8685 1.2257 -1.4933 2.4284 -1.7649 3.9236 c-0.22068 1.4477 -0.24962 2.8366 0.1091 4.2696 c0.3156 1.1368 0.72356 2.2574 1.5452 3.1352 c0.56424 0.53538 1.1099 0.91728 1.9184 0.91746 c0.89202 -0.080488 1.5232 -0.41612 2.1658 -1.0428 c0.93114 -1.0213 1.5058 -2.1144 1.9063 -3.4408 c0.53866 -1.9374 0.8337 -3.9256 0.86904 -5.939 c0.039824 -2.4732 -0.06213 -4.9454 -0.3425 -7.4044 c-0.24192 -2.152 -0.5192 -4.3014 -0.93404 -6.428 c-0.19111 -0.96008 -0.38584 -1.9208 -0.65298 -2.8632 c-0.10854 -0.36842 -0.13186 -0.70768 -0.089238 -1.0124 c-0.71218 0.086016 -1.4224 0.18695 -2.1288 0.31382 c-0.77932 0.14549 -1.5585 0.29738 -2.3222 0.51214 c-2.7332 0.7764 -3.8312 -3.0888 -1.098 -3.8652 c0.8816 -0.24964 1.7809 -0.4275 2.6808 -0.59644 c1.563 -0.28306 3.1434 -0.44972 4.7238 -0.59722 c1.4426 -0.12658 2.8872 -0.2276 4.3306 -0.34582 c0.76046 -0.067012 0.38792 -0.03289 1.1177 -0.10211 c0.088418 -0.008379 0.17439 -0.012852 0.25796 -0.012852 z"></path></g><g id="SvgjsG12829" featurekey="inlineSymbolFeature-0" transform="matrix(0.6428570990659783,0,0,0.6428570990659783,213.2937158656995,16.428570990659782)" fill="#16506a"><path xmlns="http://www.w3.org/2000/svg" d="M36.541,10.432l0,1.211c1.726,0.351 3.027,1.879 3.027,3.708l0,40.865c0,2.089 -1.696,3.784 -3.784,3.784l-7.568,0c-2.088,0 -3.784,-1.695 -3.784,-3.784l0,-40.865c0,-1.829 1.301,-3.357 3.027,-3.708l0,-1.211l9.082,0Zm0,-0.756l-9.082,0l0,-1.135l9.082,0l0,1.135Zm0,-1.892l-9.082,0l0,-1.514l-0.945,0c-0.314,0 -0.568,-0.254 -0.568,-0.567l0,-1.135c0,-0.314 0.254,-0.568 0.568,-0.568l10.972,0c0.314,0 0.568,0.254 0.568,0.568l0,1.135c0,0.313 -0.254,0.567 -0.568,0.567l-0.945,0l0,1.514Z"></path></g><g id="SvgjsG12830" featurekey="nameRightFeature-0" transform="matrix(0.9707002822615307,0,0,0.9707002822615307,243.63115432132994,31.6603681700959)" fill="#111111"><path d="M13.227 -9.14 c0.0508 -0.027324 0.1 -0.059882 0.14715 -0.098184 c-0.050038 0.018398 -0.09916 0.053106 -0.14715 0.098184 z M4.3716 -9.806000000000001 c0.17871 1.0533 0.23432 2.1238 0.30632 3.1884 c0.12826 2.0708 0.23396 4.143 0.34086 6.215 c0.068418 -0.23756 0.13775 -0.47486 0.20792 -0.71192 c0.63122 -2.105 1.4244 -4.155 2.3144 -6.1628 c0.53376 -1.1914 1.1489 -2.3434 1.8536 -3.442 c0.45704 -0.72564 1.0277 -1.3438 1.721 -1.8442 c0.71096 -0.43038 1.5301 -0.6116 2.347 -0.37296 c0.62048 0.18129 0.75258 0.35718 1.2466 0.74092 c1.1359 1.1934 1.5159 2.8138 1.8894 4.3684 c0.5331 2.4726 0.81062 4.99 1.0763 7.5024 c0.27 2.7038 0.49112 5.4122 0.73392 8.1186 c0.17031 1.9234 0.37496 3.8434 0.61416 5.7596 c0.11641 0.88732 0.058476 0.45598 0.17328 1.2941 c0.38568 2.815 -3.5954 3.3604 -3.981 0.54532 c-0.11904 -0.86932 -0.058964 -0.42204 -0.17961 -1.3419 c-0.24462 -1.9621 -0.45472 -3.9284 -0.62904 -5.898 c-0.2408 -2.6852 -0.4604 -5.3726 -0.72768 -8.0554 c-0.2472 -2.3416 -0.50216 -4.6882 -0.98952 -6.9946 c-0.11381 -0.48424 -0.16223 -0.72176 -0.26522 -1.0867 c-0.45052 0.75316 -0.84852 1.5368 -1.2106 2.3368 c-0.82178 1.8481 -1.5517 3.7362 -2.1346 5.6742 c-0.71776 2.418 -1.3399 4.8632 -1.7964 7.3452 c-0.35024 1.8787 -0.6712 3.7622 -0.97966 5.6482 c-0.16992 0.98016 -0.35 3.2378 -1.8488 3.231 c-0.9036 -0.0040626 -1.6007 -0.83888 -2.401 -1.2583 c-0.045118 -0.18105 -0.095762 -0.36082 -0.13535 -0.54314 c-0.10617 -0.48764 -0.054882 -1.0087 -0.14064 -1.499 c-0.11744 -1.5182 -0.21312 -3.038 -0.30312 -4.558 c-0.14992 -2.5444 -0.28848 -5.0892 -0.41878 -7.6346 c-0.12328 -2.3688 -0.24018 -4.738 -0.38648 -7.1054 c-0.059356 -0.88008 -0.10873 -1.763 -0.23048 -2.6372 c-0.58112 -2.7812 3.352 -3.603 3.9332 -0.8219 z M34.059 -11.149999999999999 c0.042714 0 0.08545 0.00072266 0.12818 0.0016016 c0.61346 0.011152 1.2267 0.04582 1.8333 0.14355 c0.58584 0.095918 1.1687 0.21438 1.7329 0.40262 c0.52416 0.17777 1.0417 0.37812 1.524 0.653 c0.44032 0.25376 0.87046 0.52954 1.2402 0.8816 c0.31168 0.29838 0.60628 0.61378 0.8671 0.9582 c1.7532 2.2358 -1.4088 4.7152 -3.162 2.4794 c-0.14152 -0.17906 -0.28562 -0.35938 -0.45778 -0.51036 c-0.14168 -0.12977 -0.31078 -0.22508 -0.47776 -0.31812 c-0.25776 -0.14316 -0.53528 -0.2426 -0.81424 -0.33504 c-0.35638 -0.11584 -0.72448 -0.18605 -1.0938 -0.24464 c-0.41602 -0.065176 -0.83654 -0.086934 -1.257 -0.092538 c-0.43214 -0.0073828 -0.861 0.040528 -1.2855 0.11695 c-0.50026 0.094882 -0.97718 0.27264 -1.4438 0.47168 c-0.55416 0.2431 -1.0692 0.56058 -1.5634 0.90726 c-0.52232 0.37276 -0.98312 0.81848 -1.4155 1.2902 c-0.44408 0.49142 -0.81224 1.0415 -1.1472 1.6109 c-0.34632 0.59848 -0.60008 1.2417 -0.82328 1.8942 c-0.23752 0.71038 -0.38454 1.4449 -0.50272 2.1832 c-0.12439 0.81726 -0.17582 1.6428 -0.20876 2.468 c-0.03545 0.86592 0 1.7316 0.068398 2.5948 c0.06752 0.8374 0.21774 1.6636 0.41742 2.4786 c0.16783 0.6809 0.43118 1.3289 0.76038 1.9463 c0.26954 0.49442 0.63306 0.92062 1.0344 1.3114 c0.3663 0.35406 0.7929 0.62866 1.2395 0.86864 c0.4624 0.23848 0.9556 0.4036 1.4586 0.53126 c0.53392 0.13381 1.0803 0.14387 1.6255 0.10219 c0.69736 -0.062266 1.3396 -0.32274 1.9551 -0.64058 c0.84592 -0.4617 1.5368 -1.131 2.186 -1.8318 c0.67008 -0.75018 1.2359 -1.5826 1.7601 -2.4388 c0.22576 -0.3707 0.42486 -0.75592 0.6039 -1.151 c0.14076 -0.30624 0.31626 -0.55238 0.51418 -0.74434 c-0.04955 -0.30008 -0.10713 -0.59902 -0.1866 -0.89082 c-0.6252 -0.0051562 -1.2505 0.0073242 -1.8754 0.044336 c-1.3593 0.086446 -2.7198 0.20526 -4.0562 0.4791 c-0.54592 0.11979 -1.1006 0.23558 -1.6124 0.46754 c-2.459 1.4234 -4.472 -2.0542 -2.013 -3.4776 c0.8539 -0.47134 1.8082 -0.69948 2.7518 -0.91204 c1.5386 -0.32306 3.1058 -0.46546 4.6722 -0.56696 c1.4703 -0.088808 2.943 -0.05793 4.4124 0.026132 c0.19176 0.014336 0.38366 0.028712 0.57548 0.043046 c2.2062 0.16615 2.5114 2.632 1.201 3.615 c0.068476 0.34452 0.12301 0.69232 0.17621 1.0377 c0.18543 1.3823 0.27784 2.7748 0.37222 4.1656 c0.071934 1.1091 0.14559 2.218 0.23022 3.3262 c0.039122 0.5103 0.020176 0.2622 0.056816 0.74438 c0.2152 2.8332 -3.7914 3.1374 -4.0066 0.30438 c-0.036484 -0.47978 -0.017637 -0.23212 -0.056758 -0.743 c-0.029628 -0.38816 -0.057578 -0.77644 -0.085 -1.1648 c-0.16148 0.19695 -0.32748 0.3904 -0.49906 0.57942 c-0.98096 1.0429 -2.0406 2.0152 -3.322 2.6808 c-1.1042 0.5432 -2.2568 0.97106 -3.4966 1.0579 c-0.97434 0.05625 -1.9499 0.024472 -2.9 -0.22454 c-0.81954 -0.21796 -1.6239 -0.49288 -2.3736 -0.89516 c-0.77158 -0.42768 -1.5071 -0.91678 -2.1378 -1.5393 c-0.68632 -0.6878 -1.3069 -1.4366 -1.7641 -2.2996 c-0.4728 -0.91242 -0.86482 -1.8627 -1.1062 -2.8646 c-0.24632 -1.0248 -0.4364 -2.0626 -0.51856 -3.1148 c-0.078164 -1.0209 -0.11975 -2.0446 -0.077032 -3.0684 c0.040644 -0.98562 0.10518 -1.9714 0.25718 -2.947 c0.15775 -0.96506 0.3557 -1.9246 0.67114 -2.8522 c0.31568 -0.90808 0.67702 -1.8016 1.1653 -2.6328 c0.48338 -0.80986 1.014 -1.5918 1.6529 -2.2888 c0.634 -0.68168 1.3086 -1.3258 2.0728 -1.862 c0.72704 -0.50204 1.4831 -0.96264 2.2976 -1.311 c0.7488 -0.3124 1.5154 -0.5853 2.317 -0.72746 c0.63112 -0.10676 1.2675 -0.17984 1.9082 -0.17695 z"></path></g>

</svg>